# xmcd
#
# Track frame offsets: 
#        150
#        20030
#        33740
#        52705
#        67865
#        81777
#        105687
#        134817
#        152427
#        183435
#        191267
#        211125
#        222257
#        238622
#        313692
#
# Disc length: 4308 seconds
#
# Revision: 2
# Processed by: cddbd v1.5.1PL2 Copyright (c) Steve Scherf et al.
# Submitted via: ExactAudioCopy v0.90b4
#
DISCID=ca10d20f
DTITLE=Paul Personne - Anthologie 1983-1997 CD2÷3
DYEAR=1999
DGENRE=Blues
TTITLE0=Salut
TTITLE1=En cabane sur les branches
TTITLE2=Lavomatics
TTITLE3=Clin d'oeil
TTITLE4=Mélancolie
TTITLE5=Loco loco
TTITLE6=Faire semblant
TTITLE7=Courant d'air
TTITLE8=Rêve sidéral d'un naïf idéal
TTITLE9=Ça m'va
TTITLE10=Miss Terre
TTITLE11=Horizon
TTITLE12=Plus loin d'ici
TTITLE13=Perdant blues
TTITLE14=Flashes
EXTD=YEAR: 1999
EXTT0=
EXTT1=
EXTT2=
EXTT3=
EXTT4=
EXTT5=
EXTT6=
EXTT7=
EXTT8=
EXTT9=
EXTT10=
EXTT11=
EXTT12=
EXTT13=
EXTT14=
PLAYORDER=
